<?xml version="1.0" encoding="UTF-8"?>
<svg id="Layer_2" data-name="Layer 2" xmlns="http://www.w3.org/2000/svg" viewBox="0 0 512.67 510.33">
  <defs>
    <style>
      .cls-1 {
        fill: #000;
        stroke-width: 0px;
      }
    </style>
  </defs>
  <g id="Layer_1-2" data-name="Layer 1">
    <g>
      <path class="cls-1" d="M254.08,67c14.96,0,28.1,10.57,31.25,25.12,4.01,18.54,15.7,34.52,32.15,43.96,10.25,5.88,21.76,8.88,33.34,8.88,7.01,0,14.04-1.1,20.84-3.32,3.19-1.04,6.55-1.57,9.97-1.57,17.63,0,31.98,14.35,31.98,31.98,0,8.05-2.91,14.08-5.36,17.73-10.26,15.32-13.76,34.18-9.67,52.16,4.09,17.98,15.41,33.47,31.28,42.84,9.9,5.84,15.8,16.16,15.8,27.6,0,15.55-11.06,28.8-26.3,31.49-32.38,5.72-55.83,34.09-55.34,66.98v.56s.01.14.01.14c-.1,17.55-14.4,31.8-31.98,31.8-12.23,0-20.03-6.51-23.58-10.39-12.69-13.84-30.6-21.71-49.38-21.71s-36.69,7.88-49.38,21.71c-3.56,3.88-11.35,10.39-23.58,10.39-16.81,0-30.82-13.1-31.9-29.83-2.08-32.29-26.95-58.48-59.09-62.24-16.05-1.87-28.15-15.52-28.15-31.75,0-10.93,5.51-21.01,14.75-26.95,16.26-10.46,27.2-27.44,30.02-46.56,2.82-19.12-2.75-38.54-15.3-53.25-3.47-4.08-7.62-10.98-7.62-20.71,0-17.63,14.35-31.98,31.98-31.98,4.06,0,7.98.73,11.66,2.17,7.89,3.09,16.18,4.62,24.46,4.62,11.14,0,22.24-2.78,32.24-8.26,17.42-9.56,29.7-26.36,33.52-45.87,2.92-14.91,16.11-25.73,31.38-25.73M254.08,0c-48.12,0-88.22,34.35-97.13,79.86-11.19-4.39-23.37-6.8-36.12-6.8-54.66,0-98.98,44.31-98.98,98.98,0,24.49,8.9,46.9,23.63,64.18C18.12,253.83,0,284.55,0,319.51c0,50.74,38.18,92.55,87.38,98.3,3.33,51.65,46.27,92.52,98.76,92.52,28.88,0,54.87-12.37,72.96-32.1,18.09,19.73,44.08,32.1,72.96,32.1,54.66,0,98.98-44.31,98.98-98.98,0-.51-.01-1.01-.02-1.51,46.4-8.19,81.65-48.71,81.65-97.47,0-36.33-19.58-68.09-48.76-85.3,10.54-15.74,16.7-34.66,16.7-55.02,0-54.66-44.31-98.98-98.98-98.98-10.76,0-21.12,1.72-30.82,4.9C341.18,33.39,301.53,0,254.08,0h0Z"/>
      <circle class="cls-1" cx="201.38" cy="209.63" r="34.38"/>
      <circle class="cls-1" cx="333.36" cy="255.16" r="34.38"/>
      <circle class="cls-1" cx="213.27" cy="347.15" r="34.38"/>
    </g>
  </g>
</svg>