<svg xmlns="http://www.w3.org/2000/svg" viewBox="0 0 224.08 228.18"><defs><style>.cls-1{fill:none;stroke:#fff;stroke-linejoin:round;stroke-width:26px;}</style></defs><g id="Layer_2" data-name="Layer 2"><g id="Layer_1-2" data-name="Layer 1"><path class="cls-1" d="M172.2,145.81A39.46,39.46,0,0,1,210.65,124a102.19,102.19,0,0,0-8.52-51.18,39.44,39.44,0,0,1-47.35-49.39l-.31-.16A101.42,101.42,0,0,0,117.65,13,39.43,39.43,0,0,1,91.78,41.63,39.47,39.47,0,0,1,50.47,31.28a101.37,101.37,0,0,0-32.53,38A103.22,103.22,0,0,0,13,81.05a39.42,39.42,0,0,1,23.53,33.64,39.41,39.41,0,0,1-21.84,37.82,101.44,101.44,0,0,0,38.49,47.13A39.44,39.44,0,0,1,125,215.18a102.18,102.18,0,0,0,53.1-25.58A39.44,39.44,0,0,1,172.2,145.81Z"/><circle class="cls-1" cx="109.6" cy="112.43" r="40.95"/></g></g></svg>